<svg width="16" height="5" viewBox="0 0 16 5" fill="none" xmlns="http://www.w3.org/2000/svg">
<path d="M7.93747 1.04991C6.92016 1.04991 5.93463 1.18115 5.01269 1.42788V3.05525C5.01269 3.25999 4.86645 3.44372 4.65663 3.52771C4.03353 3.78494 3.46765 4.11567 2.96535 4.49889C2.8509 4.59338 2.69195 4.64587 2.52027 4.64587C2.34224 4.64587 2.18329 4.58813 2.06884 4.49364L0.492005 3.19174C0.377557 3.1025 0.307617 2.97126 0.307617 2.82427C0.307617 2.67728 0.377557 2.54604 0.492005 2.45155C2.43126 0.934424 5.05084 0 7.93747 0C10.8241 0 13.4437 0.934424 15.3829 2.45155C15.4974 2.54604 15.5673 2.67728 15.5673 2.82427C15.5673 2.97126 15.4974 3.1025 15.3829 3.19699L13.8061 4.49889C13.6916 4.59338 13.5327 4.65112 13.3547 4.65112C13.183 4.65112 13.024 4.59338 12.9096 4.50414C12.4073 4.11567 11.8351 3.79019 11.2119 3.53296C11.0021 3.44897 10.8559 3.27049 10.8559 3.0605V1.43313C9.94031 1.18115 8.95478 1.04991 7.93747 1.04991Z" fill="white"/>
</svg>
