<svg width="29" height="29" viewBox="0 0 29 29" fill="none" xmlns="http://www.w3.org/2000/svg">
<circle cx="14.4554" cy="14.306" r="14.306" fill="#FF4550"/>
<path d="M13.9375 13.0499C12.9202 13.0499 11.9346 13.1812 11.0127 13.4279V15.0553C11.0127 15.26 10.8665 15.4437 10.6566 15.5277C10.0335 15.7849 9.46765 16.1157 8.96535 16.4989C8.8509 16.5934 8.69195 16.6459 8.52027 16.6459C8.34224 16.6459 8.18329 16.5881 8.06884 16.4936L6.49201 15.1917C6.37756 15.1025 6.30762 14.9713 6.30762 14.8243C6.30762 14.6773 6.37756 14.546 6.49201 14.4516C8.43126 12.9344 11.0508 12 13.9375 12C16.8241 12 19.4437 12.9344 21.3829 14.4516C21.4974 14.546 21.5673 14.6773 21.5673 14.8243C21.5673 14.9713 21.4974 15.1025 21.3829 15.197L19.8061 16.4989C19.6916 16.5934 19.5327 16.6511 19.3547 16.6511C19.183 16.6511 19.024 16.5934 18.9096 16.5041C18.4073 16.1157 17.8351 15.7902 17.2119 15.533C17.0021 15.449 16.8559 15.2705 16.8559 15.0605V13.4331C15.9403 13.1812 14.9548 13.0499 13.9375 13.0499Z" fill="white"/>
</svg>
