<svg width="15" height="12" viewBox="0 0 15 12" fill="none" xmlns="http://www.w3.org/2000/svg">
<path d="M12.7969 5.51375H11.5358C11.5358 5.9671 11.4171 6.38982 11.2169 6.76966L12.1293 7.5232C12.5447 6.92282 12.7969 6.24279 12.7969 5.51375ZM9.81488 5.6179C9.81488 5.58114 9.82971 5.55051 9.82971 5.51375V1.83792C9.82971 0.820936 8.83571 0 7.60434 0C6.37297 0 5.37897 0.820936 5.37897 1.83792V1.94819L9.81488 5.6179ZM1.8703 0.612639L0.928223 1.39069L5.38639 5.07265V5.51375C5.38639 6.53073 6.37297 7.35167 7.60434 7.35167C7.76753 7.35167 7.93073 7.33329 8.0865 7.30265L9.31788 8.31963C8.7912 8.5218 8.20519 8.63821 7.60434 8.63821C5.557 8.63821 3.67285 7.35167 3.67285 5.51375H2.4118C2.4118 7.60285 4.42948 9.33049 6.86255 9.63068V11.6401H8.34613V9.63068C9.02116 9.55104 9.6591 9.35499 10.2303 9.07931L13.3384 11.6401L14.2805 10.8621L1.8703 0.612639Z" fill="black"/>
</svg>
