<svg xmlns="http://www.w3.org/2000/svg" xmlns:xlink="http://www.w3.org/1999/xlink"><defs>
<clipPath id="clip0_128_2">
<rect width="29.5312" height="30" fill="white"/>
</clipPath>
</defs><symbol id="burger-menu-icon" viewBox="0 0 36 20">
<path d="M0 1H36M0 19H36M0 10H36" stroke="white" stroke-width="2"/>
</symbol><symbol id="call-icon" viewBox="0 0 16 5">
<path d="M7.93747 1.04991C6.92016 1.04991 5.93463 1.18115 5.01269 1.42788V3.05525C5.01269 3.25999 4.86645 3.44372 4.65663 3.52771C4.03353 3.78494 3.46765 4.11567 2.96535 4.49889C2.8509 4.59338 2.69195 4.64587 2.52027 4.64587C2.34224 4.64587 2.18329 4.58813 2.06884 4.49364L0.492005 3.19174C0.377557 3.1025 0.307617 2.97126 0.307617 2.82427C0.307617 2.67728 0.377557 2.54604 0.492005 2.45155C2.43126 0.934424 5.05084 0 7.93747 0C10.8241 0 13.4437 0.934424 15.3829 2.45155C15.4974 2.54604 15.5673 2.67728 15.5673 2.82427C15.5673 2.97126 15.4974 3.1025 15.3829 3.19699L13.8061 4.49889C13.6916 4.59338 13.5327 4.65112 13.3547 4.65112C13.183 4.65112 13.024 4.59338 12.9096 4.50414C12.4073 4.11567 11.8351 3.79019 11.2119 3.53296C11.0021 3.44897 10.8559 3.27049 10.8559 3.0605V1.43313C9.94031 1.18115 8.95478 1.04991 7.93747 1.04991Z" fill="white"/>
</symbol><symbol id="disable-video-icon" viewBox="0 0 14 12">
<path d="M13.3522 2.6118L10.5412 4.93339V2.902C10.5412 2.58278 10.225 2.3216 9.83849 2.3216H5.4955L13.3522 8.81046V2.6118ZM0.892491 0L0 0.737107L1.91851 2.3216H1.4055C1.01899 2.3216 0.702749 2.58278 0.702749 2.902V8.70599C0.702749 9.02521 1.01899 9.28639 1.4055 9.28639H9.83849C9.98607 9.28639 10.1126 9.23996 10.218 9.18192L12.4597 11.0276L13.3522 10.2905L0.892491 0Z" fill="#333333"/>
</symbol><symbol id="facebook-icon" viewBox="0 0 30 28">
<path d="M15 0C6.71572 0 0 6.17182 0 13.7851C0 20.6656 5.48525 26.3687 12.6562 27.4028V17.7699H8.84766V13.7851H12.6562V10.7481C12.6562 7.29321 14.8957 5.38482 18.322 5.38482C19.9632 5.38482 21.6797 5.65407 21.6797 5.65407V9.0465H19.7883C17.925 9.0465 17.3438 10.1092 17.3438 11.1994V13.7851H21.5039L20.8389 17.7699H17.3438V27.4028C24.5147 26.3687 30 20.6659 30 13.7851C30 6.17182 23.2843 0 15 0Z" fill="#5540BF"/>
</symbol><symbol id="mute-icon" viewBox="0 0 15 12">
<path d="M12.7969 5.51375H11.5358C11.5358 5.9671 11.4171 6.38982 11.2169 6.76966L12.1293 7.5232C12.5447 6.92282 12.7969 6.24279 12.7969 5.51375ZM9.81488 5.6179C9.81488 5.58114 9.82971 5.55051 9.82971 5.51375V1.83792C9.82971 0.820936 8.83571 0 7.60434 0C6.37297 0 5.37897 0.820936 5.37897 1.83792V1.94819L9.81488 5.6179ZM1.8703 0.612639L0.928223 1.39069L5.38639 5.07265V5.51375C5.38639 6.53073 6.37297 7.35167 7.60434 7.35167C7.76753 7.35167 7.93073 7.33329 8.0865 7.30265L9.31788 8.31963C8.7912 8.5218 8.20519 8.63821 7.60434 8.63821C5.557 8.63821 3.67285 7.35167 3.67285 5.51375H2.4118C2.4118 7.60285 4.42948 9.33049 6.86255 9.63068V11.6401H8.34613V9.63068C9.02116 9.55104 9.6591 9.35499 10.2303 9.07931L13.3384 11.6401L14.2805 10.8621L1.8703 0.612639Z" fill="black"/>
</symbol><symbol id="telegram-icon" viewBox="0 0 30 30">
<path fill-rule="evenodd" clip-rule="evenodd" d="M15 0C6.7175 0 0 6.715 0 15C0 23.2838 6.7175 30 15 30C23.2838 30 30 23.2838 30 15C30 6.715 23.2838 0 15 0ZM19.03 22.3388C19.265 22.505 19.5675 22.5462 19.8375 22.445C20.1063 22.3425 20.305 22.1112 20.365 21.8312C20.9988 18.8538 22.5362 11.3162 23.1125 8.60875C23.1562 8.40375 23.0838 8.19125 22.9238 8.055C22.7625 7.91875 22.54 7.88 22.3425 7.9525C19.285 9.085 9.86875 12.6175 6.02 14.0413C5.77625 14.1325 5.6175 14.3663 5.625 14.625C5.63375 14.8825 5.8075 15.1063 6.0575 15.1813C7.78375 15.6975 10.0487 16.4163 10.0487 16.4163C10.0487 16.4163 11.1075 19.6137 11.6587 21.2387C11.7287 21.4437 11.8888 21.6038 12.0988 21.6587C12.31 21.7137 12.5337 21.6562 12.6912 21.5075C13.5775 20.6712 14.9475 19.3775 14.9475 19.3775C14.9475 19.3775 17.5525 21.2863 19.03 22.3388ZM11.0012 16.0112L12.2262 20.05L12.4987 17.4925C12.4987 17.4925 17.2275 13.2262 19.925 10.795C20.0037 10.7237 20.0138 10.6038 19.9487 10.52C19.8837 10.4363 19.7638 10.4162 19.675 10.4737C16.55 12.4688 11.0012 16.0112 11.0012 16.0112Z" fill="#5540BF"/>
</symbol><symbol id="vk-icon" viewBox="0 0 30 30">
<path fill-rule="evenodd" clip-rule="evenodd" d="M19.6048 0H10.3952C1.99012 0 0 1.99012 0 10.3952V19.6048C0 28.0099 1.99012 30 10.3952 30H19.6048C28.0099 30 30 28.0099 30 19.6048V10.3952C30 1.99012 27.9887 0 19.6048 0ZM24.2202 21.4044H22.0395C21.2138 21.4044 20.9598 20.7481 19.4778 19.2449C18.1863 17.9958 17.6147 17.8264 17.2971 17.8264C16.8525 17.8264 16.7255 17.9534 16.7255 18.5674V20.5363C16.7255 21.0656 16.5561 21.3832 15.1588 21.3832C12.8511 21.3832 10.2893 19.9859 8.48977 17.3818C5.77982 13.5709 5.03881 10.7128 5.03881 10.12C5.03881 9.8024 5.16584 9.506 5.77982 9.506H7.96048C8.51094 9.506 8.72265 9.76006 8.93437 10.3529C10.0141 13.4651 11.8137 16.1962 12.5547 16.1962C12.8299 16.1962 12.957 16.0692 12.957 15.3705V12.1524C12.8723 10.6704 12.0889 10.5434 12.0889 10.0141C12.0889 9.76005 12.3006 9.506 12.6394 9.506H16.0692C16.5349 9.506 16.7043 9.76006 16.7043 10.3105V14.6507C16.7043 15.1164 16.916 15.2858 17.043 15.2858C17.3183 15.2858 17.5512 15.1164 18.0593 14.6083C19.626 12.8511 20.7481 10.1411 20.7481 10.1411C20.8963 9.82357 21.1503 9.52717 21.7008 9.52717H23.8814C24.5378 9.52717 24.686 9.86591 24.5378 10.3317C24.2625 11.602 21.5949 15.3705 21.5949 15.3705C21.362 15.7516 21.2773 15.921 21.5949 16.3444C21.8278 16.662 22.59 17.3183 23.0981 17.9111C24.0296 18.9697 24.7495 19.8589 24.94 20.4728C25.1517 21.0868 24.8342 21.4044 24.2202 21.4044Z" fill="#5540BF"/>
</symbol><symbol id="whatsup-icon" viewBox="0 0 30 30">
<g clip-path="url(#clip0_128_2)">
<path fill-rule="evenodd" clip-rule="evenodd" d="M25.2284 4.35944C22.4527 1.54961 18.7611 0.00142558 14.8277 0C6.72254 0 0.126202 6.66817 0.123382 14.8646C0.121972 17.4848 0.799514 20.0423 2.08621 22.2961L0 30L7.79491 27.9329C9.94246 29.1176 12.3607 29.7413 14.8213 29.742H14.8277C14.8284 29.742 14.827 29.742 14.8277 29.742C22.9314 29.742 29.5284 23.0731 29.5312 14.8767C29.5327 10.9043 28.0048 7.16926 25.2284 4.35944ZM14.8277 27.2315H14.8227C12.6301 27.2308 10.479 26.6349 8.60218 25.5094L8.15589 25.2414L3.53013 26.4681L4.76465 21.9084L4.47418 21.4408C3.25093 19.4735 2.60441 17.1997 2.60582 14.8653C2.60864 8.05313 8.09102 2.51045 14.8326 2.51045C18.0969 2.51188 21.1653 3.79847 23.4729 6.13429C25.7804 8.4694 27.0502 11.5743 27.0488 14.8753C27.046 21.6881 21.5636 27.2315 14.8277 27.2315ZM21.5312 17.9773C21.1639 17.7913 19.3575 16.8932 19.0205 16.7691C18.6835 16.6451 18.4389 16.5831 18.1942 16.9552C17.9496 17.3273 17.2452 18.1641 17.0309 18.4114C16.8166 18.6595 16.6023 18.6901 16.2349 18.5041C15.8676 18.318 14.6838 17.926 13.2801 16.6608C12.188 15.6757 11.4505 14.4597 11.2362 14.0876C11.0219 13.7155 11.2136 13.5145 11.3969 13.3299C11.5619 13.1631 11.7643 12.8958 11.9483 12.6791C12.1323 12.4625 12.1929 12.3071 12.3156 12.0597C12.4383 11.8117 12.377 11.595 12.2853 11.409C12.1936 11.2229 11.459 9.3946 11.1523 8.65116C10.8541 7.92696 10.5509 8.02533 10.326 8.01321C10.1117 8.00252 9.86702 8.00038 9.62166 8.00038C9.37701 8.00038 8.97867 8.09304 8.64166 8.46512C8.30465 8.8372 7.35567 9.73603 7.35567 11.5636C7.35567 13.3919 8.67198 15.1582 8.85599 15.4063C9.04001 15.6543 11.447 19.4058 15.1322 21.0153C16.0086 21.398 16.6932 21.6268 17.2269 21.7979C18.1068 22.0809 18.9077 22.041 19.5409 21.9454C20.2466 21.8385 21.7145 21.0466 22.0205 20.1791C22.3265 19.3117 22.3265 18.5675 22.2348 18.4128C22.1432 18.2567 21.8985 18.1634 21.5312 17.9773Z" fill="#5540BF"/>
</g>

</symbol></svg>