<svg width="29" height="29" viewBox="0 0 29 29" fill="none" xmlns="http://www.w3.org/2000/svg">
<g opacity="0.5">
<circle cx="14.6046" cy="14.306" r="14.306" fill="white"/>
<path d="M19.7969 13.5137H18.5358C18.5358 13.9671 18.4171 14.3898 18.2169 14.7697L19.1293 15.5232C19.5447 14.9228 19.7969 14.2428 19.7969 13.5137ZM16.8149 13.6179C16.8149 13.5811 16.8297 13.5505 16.8297 13.5137V9.83792C16.8297 8.82094 15.8357 8 14.6043 8C13.373 8 12.379 8.82094 12.379 9.83792V9.94819L16.8149 13.6179ZM8.8703 8.61264L7.92822 9.39069L12.3864 13.0726V13.5137C12.3864 14.5307 13.373 15.3517 14.6043 15.3517C14.7675 15.3517 14.9307 15.3333 15.0865 15.3027L16.3179 16.3196C15.7912 16.5218 15.2052 16.6382 14.6043 16.6382C12.557 16.6382 10.6728 15.3517 10.6728 13.5137H9.4118C9.4118 15.6028 11.4295 17.3305 13.8625 17.6307V19.6401H15.3461V17.6307C16.0212 17.551 16.6591 17.355 17.2303 17.0793L20.3384 19.6401L21.2805 18.8621L8.8703 8.61264Z" fill="black"/>
</g>
</svg>
