<svg width="41" height="34" viewBox="0 0 41 34" fill="none" xmlns="http://www.w3.org/2000/svg">
<circle cx="1.4132" cy="2.28869" r="1.4132" fill="#5540BF"/>
<circle cx="1.4132" cy="9.82555" r="1.4132" fill="#5540BF"/>
<circle cx="1.4132" cy="17.3627" r="1.4132" fill="#5540BF"/>
<circle cx="1.4132" cy="24.8995" r="1.4132" fill="#5540BF"/>
<circle cx="1.4132" cy="32.4366" r="1.4132" fill="#5540BF"/>
<circle cx="8.95031" cy="2.28844" r="1.4132" fill="#5540BF"/>
<circle cx="8.95031" cy="9.82555" r="1.4132" fill="#5540BF"/>
<circle cx="8.95031" cy="17.3627" r="1.4132" fill="#5540BF"/>
<circle cx="8.95031" cy="24.8995" r="1.4132" fill="#5540BF"/>
<circle cx="8.95031" cy="32.4366" r="1.4132" fill="#5540BF"/>
<circle cx="16.4874" cy="2.28844" r="1.4132" fill="#5540BF"/>
<circle cx="16.4874" cy="9.82555" r="1.4132" fill="#5540BF"/>
<circle cx="16.4874" cy="17.3627" r="1.4132" fill="#5540BF"/>
<circle cx="16.4874" cy="24.8995" r="1.4132" fill="#5540BF"/>
<circle cx="16.4874" cy="32.4366" r="1.4132" fill="#5540BF"/>
<circle cx="24.0245" cy="2.28844" r="1.4132" fill="#5540BF"/>
<circle cx="24.0245" cy="9.82555" r="1.4132" fill="#5540BF"/>
<circle cx="24.0245" cy="17.3627" r="1.4132" fill="#5540BF"/>
<circle cx="24.0245" cy="24.8995" r="1.4132" fill="#5540BF"/>
<circle cx="24.0245" cy="32.4366" r="1.4132" fill="#5540BF"/>
<circle cx="31.5614" cy="2.28844" r="1.4132" fill="#5540BF"/>
<circle cx="31.5614" cy="9.82555" r="1.4132" fill="#5540BF"/>
<circle cx="31.5614" cy="17.3627" r="1.4132" fill="#5540BF"/>
<circle cx="31.5614" cy="24.8995" r="1.4132" fill="#5540BF"/>
<circle cx="31.5614" cy="32.4366" r="1.4132" fill="#5540BF"/>
<circle cx="39.0985" cy="2.28844" r="1.4132" fill="#5540BF"/>
<circle cx="39.0985" cy="9.82555" r="1.4132" fill="#5540BF"/>
<circle cx="39.0985" cy="17.3627" r="1.4132" fill="#5540BF"/>
<circle cx="39.0985" cy="24.8995" r="1.4132" fill="#5540BF"/>
<circle cx="39.0985" cy="32.4366" r="1.4132" fill="#5540BF"/>
</svg>
