<svg width="72" height="59" viewBox="0 0 72 59" fill="none" xmlns="http://www.w3.org/2000/svg">
<circle cx="2.50092" cy="2.50092" r="2.50092" fill="#FFD100"/>
<circle cx="2.50092" cy="15.8392" r="2.50092" fill="#FFD100"/>
<circle cx="2.50092" cy="29.1774" r="2.50092" fill="#FFD100"/>
<circle cx="2.50092" cy="42.5158" r="2.50092" fill="#FFD100"/>
<circle cx="2.50092" cy="55.854" r="2.50092" fill="#FFD100"/>
<circle cx="15.8391" cy="2.50092" r="2.50092" fill="#FFD100"/>
<circle cx="15.8391" cy="15.8392" r="2.50092" fill="#FFD100"/>
<circle cx="15.8391" cy="29.1774" r="2.50092" fill="#FFD100"/>
<circle cx="15.8391" cy="42.5158" r="2.50092" fill="#FFD100"/>
<circle cx="15.8391" cy="55.854" r="2.50092" fill="#FFD100"/>
<circle cx="29.1774" cy="2.50092" r="2.50092" fill="#FFD100"/>
<circle cx="29.1774" cy="15.8392" r="2.50092" fill="#FFD100"/>
<circle cx="29.1774" cy="29.1774" r="2.50092" fill="#FFD100"/>
<circle cx="29.1774" cy="42.5158" r="2.50092" fill="#FFD100"/>
<circle cx="29.1774" cy="55.854" r="2.50092" fill="#FFD100"/>
<circle cx="42.5157" cy="2.50092" r="2.50092" fill="#FFD100"/>
<circle cx="42.5157" cy="15.8392" r="2.50092" fill="#FFD100"/>
<circle cx="42.5157" cy="29.1774" r="2.50092" fill="#FFD100"/>
<circle cx="42.5157" cy="42.5158" r="2.50092" fill="#FFD100"/>
<circle cx="42.5157" cy="55.854" r="2.50092" fill="#FFD100"/>
<circle cx="55.854" cy="2.50092" r="2.50092" fill="#FFD100"/>
<circle cx="55.854" cy="15.8392" r="2.50092" fill="#FFD100"/>
<circle cx="55.854" cy="29.1774" r="2.50092" fill="#FFD100"/>
<circle cx="55.854" cy="42.5158" r="2.50092" fill="#FFD100"/>
<circle cx="55.854" cy="55.854" r="2.50092" fill="#FFD100"/>
<circle cx="69.1922" cy="2.50092" r="2.50092" fill="#FFD100"/>
<circle cx="69.1922" cy="15.8392" r="2.50092" fill="#FFD100"/>
<circle cx="69.1922" cy="29.1774" r="2.50092" fill="#FFD100"/>
<circle cx="69.1922" cy="42.5158" r="2.50092" fill="#FFD100"/>
<circle cx="69.1922" cy="55.854" r="2.50092" fill="#FFD100"/>
</svg>
