<svg width="86" height="70" viewBox="0 0 86 70" fill="none" xmlns="http://www.w3.org/2000/svg">
<circle cx="83" cy="67" r="3" transform="rotate(180 83 67)" fill="#FFD100"/>
<circle cx="83" cy="51" r="3" transform="rotate(180 83 51)" fill="#FFD100"/>
<circle cx="67" cy="67" r="3" transform="rotate(180 67 67)" fill="#FFD100"/>
<circle cx="67" cy="51" r="3" transform="rotate(180 67 51)" fill="#FFD100"/>
<circle cx="51" cy="67" r="3" transform="rotate(180 51 67)" fill="#FFD100"/>
<circle cx="51" cy="51" r="3" transform="rotate(180 51 51)" fill="#FFD100"/>
<circle cx="35" cy="67" r="3" transform="rotate(180 35 67)" fill="#FFD100"/>
<circle cx="35" cy="51" r="3" transform="rotate(180 35 51)" fill="#FFD100"/>
<circle cx="35" cy="35" r="3" transform="rotate(180 35 35)" fill="#FFD100"/>
<circle cx="51" cy="35" r="3" transform="rotate(180 51 35)" fill="#FFD100"/>
<circle cx="35" cy="19" r="3" transform="rotate(180 35 19)" fill="#FFD100"/>
<circle cx="35" cy="3" r="3" transform="rotate(180 35 3)" fill="#FFD100"/>
<circle cx="19" cy="67" r="3" transform="rotate(180 19 67)" fill="#FFD100"/>
<circle cx="19" cy="51" r="3" transform="rotate(180 19 51)" fill="#FFD100"/>
<circle cx="19" cy="35" r="3" transform="rotate(180 19 35)" fill="#FFD100"/>
<circle cx="19" cy="19" r="3" transform="rotate(180 19 19)" fill="#FFD100"/>
<circle cx="19" cy="3" r="3" transform="rotate(180 19 3)" fill="#FFD100"/>
<circle cx="3" cy="67" r="3" transform="rotate(180 3 67)" fill="#FFD100"/>
<circle cx="3" cy="51" r="3" transform="rotate(180 3 51)" fill="#FFD100"/>
<circle cx="3" cy="35" r="3" transform="rotate(180 3 35)" fill="#FFD100"/>
<circle cx="2.99999" cy="19" r="3" transform="rotate(180 2.99999 19)" fill="#FFD100"/>
<circle cx="2.99999" cy="3" r="3" transform="rotate(180 2.99999 3)" fill="#FFD100"/>
</svg>
