<svg width="101" height="39" viewBox="0 0 101 39" fill="none" xmlns="http://www.w3.org/2000/svg">
<circle cx="1.66461" cy="1.66461" r="1.66461" fill="white"/>
<circle cx="1.66461" cy="10.5425" r="1.66461" fill="white"/>
<circle cx="1.66461" cy="19.4205" r="1.66461" fill="white"/>
<circle cx="1.66461" cy="28.2983" r="1.66461" fill="white"/>
<circle cx="1.66461" cy="37.1763" r="1.66461" fill="white"/>
<circle cx="10.5425" cy="1.66461" r="1.66461" fill="white"/>
<circle cx="10.5425" cy="10.5425" r="1.66461" fill="white"/>
<circle cx="10.5425" cy="19.4205" r="1.66461" fill="white"/>
<circle cx="10.5425" cy="28.2983" r="1.66461" fill="white"/>
<circle cx="10.5425" cy="37.1763" r="1.66461" fill="white"/>
<circle cx="19.4205" cy="1.66461" r="1.66461" fill="white"/>
<circle cx="19.4205" cy="10.5425" r="1.66461" fill="white"/>
<circle cx="19.4205" cy="19.4205" r="1.66461" fill="white"/>
<circle cx="19.4205" cy="28.2983" r="1.66461" fill="white"/>
<circle cx="19.4205" cy="37.1763" r="1.66461" fill="white"/>
<circle cx="28.2982" cy="1.66461" r="1.66461" fill="white"/>
<circle cx="28.2982" cy="10.5425" r="1.66461" fill="white"/>
<circle cx="28.2982" cy="19.4205" r="1.66461" fill="white"/>
<circle cx="28.2982" cy="28.2983" r="1.66461" fill="white"/>
<circle cx="28.2982" cy="37.1763" r="1.66461" fill="white"/>
<circle cx="37.1763" cy="1.66461" r="1.66461" fill="white"/>
<circle cx="37.1763" cy="10.5425" r="1.66461" fill="white"/>
<circle cx="37.1763" cy="19.4205" r="1.66461" fill="white"/>
<circle cx="37.1763" cy="28.2983" r="1.66461" fill="white"/>
<circle cx="37.1763" cy="37.1763" r="1.66461" fill="white"/>
<circle cx="46.054" cy="1.66461" r="1.66461" fill="white"/>
<circle cx="46.054" cy="10.5425" r="1.66461" fill="white"/>
<circle cx="46.054" cy="19.4205" r="1.66461" fill="white"/>
<circle cx="46.054" cy="28.2983" r="1.66461" fill="white"/>
<circle cx="46.054" cy="37.1763" r="1.66461" fill="white"/>
<circle cx="54.9319" cy="1.66461" r="1.66461" fill="white"/>
<circle cx="54.9319" cy="10.5425" r="1.66461" fill="white"/>
<circle cx="54.9319" cy="19.4205" r="1.66461" fill="white"/>
<circle cx="54.9319" cy="28.2983" r="1.66461" fill="white"/>
<circle cx="54.9319" cy="37.1763" r="1.66461" fill="white"/>
<circle cx="63.8099" cy="1.66461" r="1.66461" fill="white"/>
<circle cx="63.8099" cy="10.5425" r="1.66461" fill="white"/>
<circle cx="63.8099" cy="19.4205" r="1.66461" fill="white"/>
<circle cx="63.8099" cy="28.2983" r="1.66461" fill="white"/>
<circle cx="63.8099" cy="37.1763" r="1.66461" fill="white"/>
<circle cx="72.6878" cy="1.66461" r="1.66461" fill="white"/>
<circle cx="72.6878" cy="10.5425" r="1.66461" fill="white"/>
<circle cx="72.6878" cy="19.4205" r="1.66461" fill="white"/>
<circle cx="72.6878" cy="28.2983" r="1.66461" fill="white"/>
<circle cx="72.6878" cy="37.1763" r="1.66461" fill="white"/>
<circle cx="81.5655" cy="1.66461" r="1.66461" fill="white"/>
<circle cx="81.5655" cy="10.5425" r="1.66461" fill="white"/>
<circle cx="81.5655" cy="19.4205" r="1.66461" fill="white"/>
<circle cx="81.5655" cy="28.2983" r="1.66461" fill="white"/>
<circle cx="81.5655" cy="37.1763" r="1.66461" fill="white"/>
<circle cx="90.4437" cy="1.66461" r="1.66461" fill="white"/>
<circle cx="90.4437" cy="10.5425" r="1.66461" fill="white"/>
<circle cx="90.4437" cy="19.4205" r="1.66461" fill="white"/>
<circle cx="90.4437" cy="28.2983" r="1.66461" fill="white"/>
<circle cx="90.4437" cy="37.1763" r="1.66461" fill="white"/>
<circle cx="99.3213" cy="1.66461" r="1.66461" fill="white"/>
<circle cx="99.3213" cy="10.5425" r="1.66461" fill="white"/>
<circle cx="99.3213" cy="19.4205" r="1.66461" fill="white"/>
<circle cx="99.3213" cy="28.2983" r="1.66461" fill="white"/>
<circle cx="99.3213" cy="37.1763" r="1.66461" fill="white"/>
</svg>
