<svg width="181" height="187" viewBox="0 0 181 187" fill="none" xmlns="http://www.w3.org/2000/svg">
<g filter="url(#filter0_d_112_189)">
<rect x="20" y="20" width="140.052" height="146.721" fill="#9BD9F9"/>
</g>
<circle cx="91.0256" cy="64.183" r="20.841" fill="#9BD9F9" style="mix-blend-mode:multiply"/>
<path d="M95.671 63.0981V60.6885C95.671 60.3098 95.2958 60 94.8373 60H84.8336C84.3751 60 84 60.3098 84 60.6885V67.5731C84 67.9517 84.3751 68.2615 84.8336 68.2615H94.8373C95.2958 68.2615 95.671 67.9517 95.671 67.5731V65.1635L99.0056 67.9173V60.3442L95.671 63.0981Z" fill="#9BD9F9"/>
<path d="M74.8238 109.534C75.9225 109.64 76.7598 109.982 77.3358 110.558C77.9118 111.123 78.1998 111.848 78.1998 112.734C78.1998 113.374 78.0398 113.955 77.7198 114.478C77.3998 114.99 76.9198 115.4 76.2798 115.71C75.6505 116.008 74.8772 116.158 73.9598 116.158C73.1598 116.158 72.3918 116.04 71.6558 115.806C70.9198 115.56 70.3172 115.224 69.8478 114.798L70.5838 113.534C70.9678 113.896 71.4585 114.19 72.0558 114.414C72.6532 114.627 73.2878 114.734 73.9598 114.734C74.7918 114.734 75.4372 114.558 75.8958 114.206C76.3652 113.854 76.5998 113.368 76.5998 112.75C76.5998 112.131 76.3705 111.651 75.9118 111.31C75.4532 110.968 74.7598 110.798 73.8318 110.798H72.9358V109.678L75.7518 106.222H70.3598V104.83H77.7518V105.918L74.8238 109.534ZM84.5241 109.23C85.2601 109.23 85.9161 109.368 86.4921 109.646C87.0788 109.923 87.5374 110.323 87.8681 110.846C88.1988 111.358 88.3641 111.95 88.3641 112.622C88.3641 113.326 88.1881 113.944 87.8361 114.478C87.4948 115.011 87.0201 115.427 86.4121 115.726C85.8148 116.014 85.1428 116.158 84.3961 116.158C82.8921 116.158 81.7294 115.672 80.9081 114.702C80.0974 113.731 79.6921 112.355 79.6921 110.574C79.6921 109.326 79.9108 108.264 80.3481 107.39C80.7961 106.504 81.4148 105.838 82.2041 105.39C83.0041 104.931 83.9321 104.702 84.9881 104.702C85.5321 104.702 86.0441 104.76 86.5241 104.878C87.0041 104.984 87.4201 105.144 87.7721 105.358L87.1641 106.606C86.6308 106.254 85.9161 106.078 85.0201 106.078C83.8574 106.078 82.9454 106.44 82.2841 107.166C81.6228 107.88 81.2921 108.926 81.2921 110.302C81.2921 110.472 81.2974 110.606 81.3081 110.702C81.6281 110.222 82.0654 109.859 82.6201 109.614C83.1854 109.358 83.8201 109.23 84.5241 109.23ZM84.3321 114.862C85.0681 114.862 85.6654 114.664 86.1241 114.27C86.5828 113.875 86.8121 113.347 86.8121 112.686C86.8121 112.024 86.5774 111.502 86.1081 111.118C85.6494 110.723 85.0308 110.526 84.2521 110.526C83.7508 110.526 83.3028 110.622 82.9081 110.814C82.5241 111.006 82.2201 111.267 81.9961 111.598C81.7828 111.928 81.6761 112.296 81.6761 112.702C81.6761 113.096 81.7774 113.459 81.9801 113.79C82.1934 114.11 82.4974 114.371 82.8921 114.574C83.2974 114.766 83.7774 114.862 84.3321 114.862ZM90.6231 109.662C90.3244 109.662 90.0684 109.56 89.8551 109.358C89.6418 109.144 89.5351 108.878 89.5351 108.558C89.5351 108.248 89.6418 107.992 89.8551 107.79C90.0684 107.576 90.3244 107.47 90.6231 107.47C90.9218 107.47 91.1724 107.571 91.3751 107.774C91.5778 107.976 91.6791 108.238 91.6791 108.558C91.6791 108.878 91.5724 109.144 91.3591 109.358C91.1564 109.56 90.9111 109.662 90.6231 109.662ZM90.6231 116.126C90.3244 116.126 90.0684 116.024 89.8551 115.822C89.6418 115.608 89.5351 115.342 89.5351 115.022C89.5351 114.712 89.6418 114.456 89.8551 114.254C90.0684 114.04 90.3244 113.934 90.6231 113.934C90.9218 113.934 91.1724 114.035 91.3751 114.238C91.5778 114.44 91.6791 114.702 91.6791 115.022C91.6791 115.342 91.5724 115.608 91.3591 115.822C91.1564 116.024 90.9111 116.126 90.6231 116.126ZM97.7681 116.158C96.8828 116.158 96.0934 115.934 95.4001 115.486C94.7174 115.027 94.1788 114.366 93.7841 113.502C93.3894 112.638 93.1921 111.614 93.1921 110.43C93.1921 109.246 93.3894 108.222 93.7841 107.358C94.1788 106.494 94.7174 105.838 95.4001 105.39C96.0934 104.931 96.8828 104.702 97.7681 104.702C98.6428 104.702 99.4214 104.931 100.104 105.39C100.797 105.838 101.341 106.494 101.736 107.358C102.131 108.222 102.328 109.246 102.328 110.43C102.328 111.614 102.131 112.638 101.736 113.502C101.341 114.366 100.797 115.027 100.104 115.486C99.4214 115.934 98.6428 116.158 97.7681 116.158ZM97.7681 114.734C98.6641 114.734 99.3788 114.366 99.9121 113.63C100.456 112.894 100.728 111.827 100.728 110.43C100.728 109.032 100.456 107.966 99.9121 107.23C99.3788 106.494 98.6641 106.126 97.7681 106.126C96.8614 106.126 96.1361 106.494 95.5921 107.23C95.0588 107.966 94.7921 109.032 94.7921 110.43C94.7921 111.827 95.0588 112.894 95.5921 113.63C96.1361 114.366 96.8614 114.734 97.7681 114.734ZM107.064 109.294C108.664 109.294 109.837 109.598 110.584 110.206C111.341 110.803 111.72 111.624 111.72 112.67C111.72 113.331 111.56 113.928 111.24 114.462C110.931 114.984 110.456 115.4 109.816 115.71C109.187 116.008 108.408 116.158 107.48 116.158C106.691 116.158 105.928 116.04 105.192 115.806C104.456 115.56 103.848 115.224 103.368 114.798L104.104 113.534C104.488 113.896 104.979 114.19 105.576 114.414C106.173 114.627 106.803 114.734 107.464 114.734C108.307 114.734 108.957 114.558 109.416 114.206C109.885 113.843 110.12 113.352 110.12 112.734C110.12 112.062 109.864 111.555 109.352 111.214C108.84 110.862 107.965 110.686 106.728 110.686H104.184L104.776 104.83H111.096V106.222H106.12L105.816 109.294H107.064Z" fill="white"/>
<path d="M67.6438 129.008V130.928H66.8998V129.704H62.2918L62.2838 130.928H61.5398L61.5478 129.008H61.8198C62.1718 128.987 62.4198 128.71 62.5638 128.176C62.7078 127.638 62.7958 126.88 62.8278 125.904L62.8838 124.104H66.8198V129.008H67.6438ZM63.5318 125.976C63.5051 126.766 63.4411 127.419 63.3398 127.936C63.2438 128.454 63.0865 128.811 62.8678 129.008H66.0278V124.8H63.5718L63.5318 125.976ZM72.2495 125.464V129.704H71.4815V126.136H69.6575L69.6095 127.08C69.5828 127.651 69.5322 128.128 69.4575 128.512C69.3828 128.891 69.2602 129.195 69.0895 129.424C68.9188 129.654 68.6815 129.768 68.3775 129.768C68.2388 129.768 68.0815 129.744 67.9055 129.696L67.9535 129.048C68.0228 129.064 68.0868 129.072 68.1455 129.072C68.3588 129.072 68.5188 128.979 68.6255 128.792C68.7322 128.606 68.8015 128.384 68.8335 128.128C68.8655 127.872 68.8948 127.507 68.9215 127.032L68.9935 125.464H72.2495ZM73.7345 125.464H74.5025V128.552L77.1025 125.464H77.7985V129.704H77.0305V126.616L74.4385 129.704H73.7345V125.464ZM82.4492 126.136H80.8972V129.704H80.1292V126.136H78.5772V125.464H82.4492V126.136ZM86.879 127.608C86.879 127.667 86.8737 127.744 86.863 127.84H83.423C83.471 128.214 83.6337 128.515 83.911 128.744C84.1937 128.968 84.543 129.08 84.959 129.08C85.4657 129.08 85.8737 128.91 86.183 128.568L86.607 129.064C86.415 129.288 86.175 129.459 85.887 129.576C85.6043 129.694 85.287 129.752 84.935 129.752C84.487 129.752 84.0897 129.662 83.743 129.48C83.3963 129.294 83.127 129.035 82.935 128.704C82.7483 128.374 82.655 128 82.655 127.584C82.655 127.174 82.7457 126.803 82.927 126.472C83.1137 126.142 83.367 125.886 83.687 125.704C84.0123 125.518 84.3777 125.424 84.783 125.424C85.1883 125.424 85.5483 125.518 85.863 125.704C86.183 125.886 86.431 126.142 86.607 126.472C86.7883 126.803 86.879 127.182 86.879 127.608ZM84.783 126.072C84.415 126.072 84.1057 126.184 83.855 126.408C83.6097 126.632 83.4657 126.926 83.423 127.288H86.143C86.1003 126.931 85.9537 126.64 85.703 126.416C85.4577 126.187 85.151 126.072 84.783 126.072ZM91.6401 125.464V129.704H90.8721V126.136H89.0481L89.0001 127.08C88.9734 127.651 88.9228 128.128 88.8481 128.512C88.7734 128.891 88.6508 129.195 88.4801 129.424C88.3094 129.654 88.0721 129.768 87.7681 129.768C87.6294 129.768 87.4721 129.744 87.2961 129.696L87.3441 129.048C87.4134 129.064 87.4774 129.072 87.5361 129.072C87.7494 129.072 87.9094 128.979 88.0161 128.792C88.1228 128.606 88.1921 128.384 88.2241 128.128C88.2561 127.872 88.2854 127.507 88.3121 127.032L88.3841 125.464H91.6401ZM95.0851 126.904C95.6238 126.91 96.0344 127.032 96.3171 127.272C96.5998 127.512 96.7411 127.851 96.7411 128.288C96.7411 128.747 96.5864 129.102 96.2771 129.352C95.9731 129.598 95.5358 129.718 94.9651 129.712L93.1251 129.704V125.464H93.8931V126.896L95.0851 126.904ZM94.9011 129.128C95.2478 129.134 95.5091 129.064 95.6851 128.92C95.8664 128.776 95.9571 128.563 95.9571 128.28C95.9571 128.003 95.8691 127.8 95.6931 127.672C95.5224 127.544 95.2584 127.478 94.9011 127.472L93.8931 127.456V129.12L94.9011 129.128ZM97.7267 125.464H98.4947V127.264H100.911V125.464H101.679V129.704H100.911V127.928H98.4947V129.704H97.7267V125.464ZM104.988 129.752C104.567 129.752 104.188 129.659 103.852 129.472C103.516 129.286 103.252 129.03 103.06 128.704C102.873 128.374 102.78 128 102.78 127.584C102.78 127.168 102.873 126.798 103.06 126.472C103.252 126.142 103.516 125.886 103.852 125.704C104.188 125.518 104.567 125.424 104.988 125.424C105.409 125.424 105.785 125.518 106.116 125.704C106.452 125.886 106.713 126.142 106.9 126.472C107.092 126.798 107.188 127.168 107.188 127.584C107.188 128 107.092 128.374 106.9 128.704C106.713 129.03 106.452 129.286 106.116 129.472C105.785 129.659 105.409 129.752 104.988 129.752ZM104.988 129.08C105.26 129.08 105.503 129.019 105.716 128.896C105.935 128.768 106.105 128.592 106.228 128.368C106.351 128.139 106.412 127.878 106.412 127.584C106.412 127.291 106.351 127.032 106.228 126.808C106.105 126.579 105.935 126.403 105.716 126.28C105.503 126.158 105.26 126.096 104.988 126.096C104.716 126.096 104.471 126.158 104.252 126.28C104.039 126.403 103.868 126.579 103.74 126.808C103.617 127.032 103.556 127.291 103.556 127.584C103.556 127.878 103.617 128.139 103.74 128.368C103.868 128.592 104.039 128.768 104.252 128.896C104.471 129.019 104.716 129.08 104.988 129.08ZM110.145 129.752C109.713 129.752 109.326 129.659 108.985 129.472C108.649 129.286 108.385 129.03 108.193 128.704C108.001 128.374 107.905 128 107.905 127.584C107.905 127.168 108.001 126.798 108.193 126.472C108.385 126.142 108.649 125.886 108.985 125.704C109.326 125.518 109.713 125.424 110.145 125.424C110.529 125.424 110.87 125.502 111.169 125.656C111.473 125.811 111.708 126.035 111.873 126.328L111.289 126.704C111.156 126.502 110.99 126.35 110.793 126.248C110.596 126.147 110.377 126.096 110.137 126.096C109.86 126.096 109.609 126.158 109.385 126.28C109.166 126.403 108.993 126.579 108.865 126.808C108.742 127.032 108.681 127.291 108.681 127.584C108.681 127.883 108.742 128.147 108.865 128.376C108.993 128.6 109.166 128.774 109.385 128.896C109.609 129.019 109.86 129.08 110.137 129.08C110.377 129.08 110.596 129.03 110.793 128.928C110.99 128.827 111.156 128.675 111.289 128.472L111.873 128.84C111.708 129.134 111.473 129.36 111.169 129.52C110.87 129.675 110.529 129.752 110.145 129.752ZM115.973 126.136H114.421V129.704H113.653V126.136H112.101V125.464H115.973V126.136ZM118.718 126.904C119.257 126.91 119.667 127.032 119.95 127.272C120.233 127.512 120.374 127.851 120.374 128.288C120.374 128.747 120.219 129.102 119.91 129.352C119.606 129.598 119.169 129.718 118.598 129.712L116.758 129.704V125.464H117.526V126.896L118.718 126.904ZM118.534 129.128C118.881 129.134 119.142 129.064 119.318 128.92C119.499 128.776 119.59 128.563 119.59 128.28C119.59 128.003 119.502 127.8 119.326 127.672C119.155 127.544 118.891 127.478 118.534 127.472L117.526 127.456V129.12L118.534 129.128ZM79.4406 137.496C79.7233 137.571 79.942 137.691 80.0966 137.856C80.2513 138.022 80.3286 138.227 80.3286 138.472C80.3286 138.723 80.2433 138.947 80.0726 139.144C79.902 139.336 79.6646 139.488 79.3606 139.6C79.062 139.707 78.726 139.76 78.3526 139.76C78.038 139.76 77.7286 139.72 77.4246 139.64C77.126 139.555 76.8593 139.435 76.6246 139.28L76.8566 138.696C77.0593 138.824 77.2913 138.926 77.5526 139C77.814 139.07 78.078 139.104 78.3446 139.104C78.7073 139.104 78.9953 139.043 79.2086 138.92C79.4273 138.792 79.5366 138.622 79.5366 138.408C79.5366 138.211 79.4486 138.059 79.2726 137.952C79.102 137.846 78.8593 137.792 78.5446 137.792H77.7686V137.24H78.4886C78.7766 137.24 79.0033 137.19 79.1686 137.088C79.334 136.987 79.4166 136.848 79.4166 136.672C79.4166 136.48 79.318 136.331 79.1206 136.224C78.9286 136.118 78.6673 136.064 78.3366 136.064C77.9153 136.064 77.47 136.174 77.0006 136.392L76.7926 135.8C77.31 135.539 77.8513 135.408 78.4166 135.408C78.758 135.408 79.0646 135.456 79.3366 135.552C79.6086 135.648 79.822 135.784 79.9766 135.96C80.1313 136.136 80.2086 136.336 80.2086 136.56C80.2086 136.768 80.1393 136.955 80.0006 137.12C79.862 137.286 79.6753 137.411 79.4406 137.496ZM84.3842 137.504C84.9335 137.643 85.2082 137.987 85.2082 138.536C85.2082 138.91 85.0669 139.198 84.7842 139.4C84.5069 139.603 84.0909 139.704 83.5362 139.704H81.4962V135.464H83.4642C83.9655 135.464 84.3575 135.56 84.6402 135.752C84.9229 135.939 85.0642 136.206 85.0642 136.552C85.0642 136.776 85.0029 136.971 84.8802 137.136C84.7629 137.296 84.5975 137.419 84.3842 137.504ZM82.2482 137.288H83.4002C83.6935 137.288 83.9149 137.235 84.0642 137.128C84.2189 137.022 84.2962 136.867 84.2962 136.664C84.2962 136.259 83.9975 136.056 83.4002 136.056H82.2482V137.288ZM83.4802 139.112C83.8002 139.112 84.0402 139.062 84.2002 138.96C84.3602 138.859 84.4402 138.702 84.4402 138.488C84.4402 138.27 84.3655 138.107 84.2162 138C84.0722 137.894 83.8429 137.84 83.5282 137.84H82.2482V139.112H83.4802ZM88.2263 139.752C87.8049 139.752 87.4263 139.659 87.0903 139.472C86.7543 139.286 86.4903 139.03 86.2983 138.704C86.1116 138.374 86.0183 138 86.0183 137.584C86.0183 137.168 86.1116 136.798 86.2983 136.472C86.4903 136.142 86.7543 135.886 87.0903 135.704C87.4263 135.518 87.8049 135.424 88.2263 135.424C88.6476 135.424 89.0236 135.518 89.3543 135.704C89.6903 135.886 89.9516 136.142 90.1383 136.472C90.3303 136.798 90.4263 137.168 90.4263 137.584C90.4263 138 90.3303 138.374 90.1383 138.704C89.9516 139.03 89.6903 139.286 89.3543 139.472C89.0236 139.659 88.6476 139.752 88.2263 139.752ZM88.2263 139.08C88.4983 139.08 88.7409 139.019 88.9543 138.896C89.1729 138.768 89.3436 138.592 89.4663 138.368C89.5889 138.139 89.6503 137.878 89.6503 137.584C89.6503 137.291 89.5889 137.032 89.4663 136.808C89.3436 136.579 89.1729 136.403 88.9543 136.28C88.7409 136.158 88.4983 136.096 88.2263 136.096C87.9543 136.096 87.7089 136.158 87.4903 136.28C87.2769 136.403 87.1063 136.579 86.9783 136.808C86.8556 137.032 86.7943 137.291 86.7943 137.584C86.7943 137.878 86.8556 138.139 86.9783 138.368C87.1063 138.592 87.2769 138.768 87.4903 138.896C87.7089 139.019 87.9543 139.08 88.2263 139.08ZM91.5353 135.464H92.3033V137.264H94.7193V135.464H95.4873V139.704H94.7193V137.928H92.3033V139.704H91.5353V135.464ZM98.6286 137.912H97.7486V139.704H96.9806V135.464H97.7486V137.256H98.6446L100.021 135.464H100.845L99.2366 137.504L100.957 139.704H100.053L98.6286 137.912ZM103.196 135.424C103.782 135.424 104.23 135.568 104.54 135.856C104.854 136.144 105.012 136.574 105.012 137.144V139.704H104.284V139.144C104.156 139.342 103.972 139.494 103.732 139.6C103.497 139.702 103.217 139.752 102.892 139.752C102.417 139.752 102.036 139.638 101.748 139.408C101.465 139.179 101.324 138.878 101.324 138.504C101.324 138.131 101.46 137.832 101.732 137.608C102.004 137.379 102.436 137.264 103.028 137.264H104.244V137.112C104.244 136.782 104.148 136.528 103.956 136.352C103.764 136.176 103.481 136.088 103.108 136.088C102.857 136.088 102.612 136.131 102.372 136.216C102.132 136.296 101.929 136.406 101.764 136.544L101.444 135.968C101.662 135.792 101.924 135.659 102.228 135.568C102.532 135.472 102.854 135.424 103.196 135.424ZM103.02 139.16C103.313 139.16 103.566 139.096 103.78 138.968C103.993 138.835 104.148 138.648 104.244 138.408V137.816H103.06C102.409 137.816 102.084 138.035 102.084 138.472C102.084 138.686 102.166 138.854 102.332 138.976C102.497 139.099 102.726 139.16 103.02 139.16Z" fill="white"/>
<defs>
<filter id="filter0_d_112_189" x="0" y="0" width="180.052" height="186.721" filterUnits="userSpaceOnUse" color-interpolation-filters="sRGB">
<feFlood flood-opacity="0" result="BackgroundImageFix"/>
<feColorMatrix in="SourceAlpha" type="matrix" values="0 0 0 0 0 0 0 0 0 0 0 0 0 0 0 0 0 0 127 0" result="hardAlpha"/>
<feOffset/>
<feGaussianBlur stdDeviation="10"/>
<feColorMatrix type="matrix" values="0 0 0 0 0.2 0 0 0 0 0.2 0 0 0 0 0.2 0 0 0 0.2 0"/>
<feBlend mode="normal" in2="BackgroundImageFix" result="effect1_dropShadow_112_189"/>
<feBlend mode="normal" in="SourceGraphic" in2="effect1_dropShadow_112_189" result="shape"/>
</filter>
</defs>
</svg>
