<svg  viewBox="0 0 168 176" fill="none" xmlns="http://www.w3.org/2000/svg">
<rect width="168" height="176" fill="#9BD9F9"/>
<circle cx="84" cy="53" r="25" fill="#9BD9F9" style="mix-blend-mode:multiply"/>
<path d="M89 51.5V48C89 47.45 88.55 47 88 47H76C75.45 47 75 47.45 75 48V58C75 58.55 75.45 59 76 59H88C88.55 59 89 58.55 89 58V54.5L93 58.5V47.5L89 51.5Z" fill="#9BD9F9"/>
<path d="M63.7477 106.88C65.1211 107.013 66.1677 107.44 66.8877 108.16C67.6077 108.867 67.9677 109.773 67.9677 110.88C67.9677 111.68 67.7677 112.407 67.3677 113.06C66.9677 113.7 66.3677 114.213 65.5677 114.6C64.7811 114.973 63.8144 115.16 62.6677 115.16C61.6677 115.16 60.7077 115.013 59.7877 114.72C58.8677 114.413 58.1144 113.993 57.5277 113.46L58.4477 111.88C58.9277 112.333 59.5411 112.7 60.2877 112.98C61.0344 113.247 61.8277 113.38 62.6677 113.38C63.7077 113.38 64.5144 113.16 65.0877 112.72C65.6744 112.28 65.9677 111.673 65.9677 110.9C65.9677 110.127 65.6811 109.527 65.1077 109.1C64.5344 108.673 63.6677 108.46 62.5077 108.46H61.3877V107.06L64.9077 102.74H58.1677V101H67.4077V102.36L63.7477 106.88ZM75.873 106.5C76.793 106.5 77.613 106.673 78.333 107.02C79.0664 107.367 79.6397 107.867 80.053 108.52C80.4664 109.16 80.673 109.9 80.673 110.74C80.673 111.62 80.453 112.393 80.013 113.06C79.5864 113.727 78.993 114.247 78.233 114.62C77.4864 114.98 76.6464 115.16 75.713 115.16C73.833 115.16 72.3797 114.553 71.353 113.34C70.3397 112.127 69.833 110.407 69.833 108.18C69.833 106.62 70.1064 105.293 70.653 104.2C71.213 103.093 71.9864 102.26 72.973 101.7C73.973 101.127 75.133 100.84 76.453 100.84C77.133 100.84 77.773 100.913 78.373 101.06C78.973 101.193 79.493 101.393 79.933 101.66L79.173 103.22C78.5064 102.78 77.613 102.56 76.493 102.56C75.0397 102.56 73.8997 103.013 73.073 103.92C72.2464 104.813 71.833 106.12 71.833 107.84C71.833 108.053 71.8397 108.22 71.853 108.34C72.253 107.74 72.7997 107.287 73.493 106.98C74.1997 106.66 74.993 106.5 75.873 106.5ZM75.633 113.54C76.553 113.54 77.2997 113.293 77.873 112.8C78.4464 112.307 78.733 111.647 78.733 110.82C78.733 109.993 78.4397 109.34 77.853 108.86C77.2797 108.367 76.5064 108.12 75.533 108.12C74.9064 108.12 74.3464 108.24 73.853 108.48C73.373 108.72 72.993 109.047 72.713 109.46C72.4464 109.873 72.313 110.333 72.313 110.84C72.313 111.333 72.4397 111.787 72.693 112.2C72.9597 112.6 73.3397 112.927 73.833 113.18C74.3397 113.42 74.9397 113.54 75.633 113.54ZM83.4968 107.04C83.1235 107.04 82.8035 106.913 82.5368 106.66C82.2701 106.393 82.1368 106.06 82.1368 105.66C82.1368 105.273 82.2701 104.953 82.5368 104.7C82.8035 104.433 83.1235 104.3 83.4968 104.3C83.8701 104.3 84.1835 104.427 84.4368 104.68C84.6901 104.933 84.8168 105.26 84.8168 105.66C84.8168 106.06 84.6835 106.393 84.4168 106.66C84.1635 106.913 83.8568 107.04 83.4968 107.04ZM83.4968 115.12C83.1235 115.12 82.8035 114.993 82.5368 114.74C82.2701 114.473 82.1368 114.14 82.1368 113.74C82.1368 113.353 82.2701 113.033 82.5368 112.78C82.8035 112.513 83.1235 112.38 83.4968 112.38C83.8701 112.38 84.1835 112.507 84.4368 112.76C84.6901 113.013 84.8168 113.34 84.8168 113.74C84.8168 114.14 84.6835 114.473 84.4168 114.74C84.1635 114.993 83.8568 115.12 83.4968 115.12ZM92.428 115.16C91.3214 115.16 90.3347 114.88 89.468 114.32C88.6147 113.747 87.9414 112.92 87.448 111.84C86.9547 110.76 86.708 109.48 86.708 108C86.708 106.52 86.9547 105.24 87.448 104.16C87.9414 103.08 88.6147 102.26 89.468 101.7C90.3347 101.127 91.3214 100.84 92.428 100.84C93.5214 100.84 94.4947 101.127 95.348 101.7C96.2147 102.26 96.8947 103.08 97.388 104.16C97.8814 105.24 98.128 106.52 98.128 108C98.128 109.48 97.8814 110.76 97.388 111.84C96.8947 112.92 96.2147 113.747 95.348 114.32C94.4947 114.88 93.5214 115.16 92.428 115.16ZM92.428 113.38C93.548 113.38 94.4414 112.92 95.108 112C95.788 111.08 96.128 109.747 96.128 108C96.128 106.253 95.788 104.92 95.108 104C94.4414 103.08 93.548 102.62 92.428 102.62C91.2947 102.62 90.388 103.08 89.708 104C89.0414 104.92 88.708 106.253 88.708 108C88.708 109.747 89.0414 111.08 89.708 112C90.388 112.92 91.2947 113.38 92.428 113.38ZM104.048 106.58C106.048 106.58 107.515 106.96 108.448 107.72C109.395 108.467 109.868 109.493 109.868 110.8C109.868 111.627 109.668 112.373 109.268 113.04C108.881 113.693 108.288 114.213 107.488 114.6C106.701 114.973 105.728 115.16 104.568 115.16C103.581 115.16 102.628 115.013 101.708 114.72C100.788 114.413 100.028 113.993 99.4279 113.46L100.348 111.88C100.828 112.333 101.441 112.7 102.188 112.98C102.935 113.247 103.721 113.38 104.548 113.38C105.601 113.38 106.415 113.16 106.988 112.72C107.575 112.267 107.868 111.653 107.868 110.88C107.868 110.04 107.548 109.407 106.908 108.98C106.268 108.54 105.175 108.32 103.628 108.32H100.448L101.188 101H109.088V102.74H102.868L102.488 106.58H104.048Z" fill="white"/>
<path d="M54.7727 131.13V133.53H53.8427V132H48.0827L48.0727 133.53H47.1427L47.1527 131.13H47.4927C47.9327 131.103 48.2427 130.757 48.4227 130.09C48.6027 129.417 48.7127 128.47 48.7527 127.25L48.8227 125H53.7427V131.13H54.7727ZM49.6327 127.34C49.5994 128.327 49.5194 129.143 49.3927 129.79C49.2727 130.437 49.076 130.883 48.8027 131.13H52.7527V125.87H49.6827L49.6327 127.34ZM60.5298 126.7V132H59.5698V127.54H57.2898L57.2298 128.72C57.1965 129.433 57.1331 130.03 57.0398 130.51C56.9465 130.983 56.7931 131.363 56.5798 131.65C56.3665 131.937 56.0698 132.08 55.6898 132.08C55.5165 132.08 55.3198 132.05 55.0998 131.99L55.1598 131.18C55.2465 131.2 55.3265 131.21 55.3998 131.21C55.6665 131.21 55.8665 131.093 55.9998 130.86C56.1331 130.627 56.2198 130.35 56.2598 130.03C56.2998 129.71 56.3365 129.253 56.3698 128.66L56.4598 126.7H60.5298ZM62.3861 126.7H63.3461V130.56L66.5961 126.7H67.4661V132H66.5061V128.14L63.2661 132H62.3861V126.7ZM73.2794 127.54H71.3394V132H70.3794V127.54H68.4394V126.7H73.2794V127.54ZM78.8167 129.38C78.8167 129.453 78.81 129.55 78.7967 129.67H74.4967C74.5567 130.137 74.76 130.513 75.1067 130.8C75.46 131.08 75.8967 131.22 76.4167 131.22C77.05 131.22 77.56 131.007 77.9467 130.58L78.4767 131.2C78.2367 131.48 77.9367 131.693 77.5767 131.84C77.2233 131.987 76.8267 132.06 76.3867 132.06C75.8267 132.06 75.33 131.947 74.8967 131.72C74.4633 131.487 74.1267 131.163 73.8867 130.75C73.6533 130.337 73.5367 129.87 73.5367 129.35C73.5367 128.837 73.65 128.373 73.8767 127.96C74.11 127.547 74.4267 127.227 74.8267 127C75.2333 126.767 75.69 126.65 76.1967 126.65C76.7033 126.65 77.1533 126.767 77.5467 127C77.9467 127.227 78.2567 127.547 78.4767 127.96C78.7033 128.373 78.8167 128.847 78.8167 129.38ZM76.1967 127.46C75.7367 127.46 75.35 127.6 75.0367 127.88C74.73 128.16 74.55 128.527 74.4967 128.98H77.8967C77.8433 128.533 77.66 128.17 77.3467 127.89C77.04 127.603 76.6567 127.46 76.1967 127.46ZM84.7681 126.7V132H83.8081V127.54H81.5281L81.4681 128.72C81.4348 129.433 81.3714 130.03 81.2781 130.51C81.1848 130.983 81.0314 131.363 80.8181 131.65C80.6048 131.937 80.3081 132.08 79.9281 132.08C79.7548 132.08 79.5581 132.05 79.3381 131.99L79.3981 131.18C79.4848 131.2 79.5648 131.21 79.6381 131.21C79.9048 131.21 80.1048 131.093 80.2381 130.86C80.3714 130.627 80.4581 130.35 80.4981 130.03C80.5381 129.71 80.5748 129.253 80.6081 128.66L80.6981 126.7H84.7681ZM89.0743 128.5C89.7477 128.507 90.261 128.66 90.6143 128.96C90.9677 129.26 91.1443 129.683 91.1443 130.23C91.1443 130.803 90.951 131.247 90.5643 131.56C90.1843 131.867 89.6377 132.017 88.9243 132.01L86.6243 132V126.7H87.5843V128.49L89.0743 128.5ZM88.8443 131.28C89.2777 131.287 89.6043 131.2 89.8243 131.02C90.051 130.84 90.1643 130.573 90.1643 130.22C90.1643 129.873 90.0543 129.62 89.8343 129.46C89.621 129.3 89.291 129.217 88.8443 129.21L87.5843 129.19V131.27L88.8443 131.28ZM92.3763 126.7H93.3363V128.95H96.3563V126.7H97.3163V132H96.3563V129.78H93.3363V132H92.3763V126.7ZM101.453 132.06C100.926 132.06 100.453 131.943 100.033 131.71C99.6129 131.477 99.2829 131.157 99.0429 130.75C98.8096 130.337 98.6929 129.87 98.6929 129.35C98.6929 128.83 98.8096 128.367 99.0429 127.96C99.2829 127.547 99.6129 127.227 100.033 127C100.453 126.767 100.926 126.65 101.453 126.65C101.98 126.65 102.45 126.767 102.863 127C103.283 127.227 103.61 127.547 103.843 127.96C104.083 128.367 104.203 128.83 104.203 129.35C104.203 129.87 104.083 130.337 103.843 130.75C103.61 131.157 103.283 131.477 102.863 131.71C102.45 131.943 101.98 132.06 101.453 132.06ZM101.453 131.22C101.793 131.22 102.096 131.143 102.363 130.99C102.636 130.83 102.85 130.61 103.003 130.33C103.156 130.043 103.233 129.717 103.233 129.35C103.233 128.983 103.156 128.66 103.003 128.38C102.85 128.093 102.636 127.873 102.363 127.72C102.096 127.567 101.793 127.49 101.453 127.49C101.113 127.49 100.806 127.567 100.533 127.72C100.266 127.873 100.053 128.093 99.8929 128.38C99.7396 128.66 99.6629 128.983 99.6629 129.35C99.6629 129.717 99.7396 130.043 99.8929 130.33C100.053 130.61 100.266 130.83 100.533 130.99C100.806 131.143 101.113 131.22 101.453 131.22ZM107.899 132.06C107.359 132.06 106.876 131.943 106.449 131.71C106.029 131.477 105.699 131.157 105.459 130.75C105.219 130.337 105.099 129.87 105.099 129.35C105.099 128.83 105.219 128.367 105.459 127.96C105.699 127.547 106.029 127.227 106.449 127C106.876 126.767 107.359 126.65 107.899 126.65C108.379 126.65 108.806 126.747 109.179 126.94C109.559 127.133 109.853 127.413 110.059 127.78L109.329 128.25C109.163 127.997 108.956 127.807 108.709 127.68C108.463 127.553 108.189 127.49 107.889 127.49C107.543 127.49 107.229 127.567 106.949 127.72C106.676 127.873 106.459 128.093 106.299 128.38C106.146 128.66 106.069 128.983 106.069 129.35C106.069 129.723 106.146 130.053 106.299 130.34C106.459 130.62 106.676 130.837 106.949 130.99C107.229 131.143 107.543 131.22 107.889 131.22C108.189 131.22 108.463 131.157 108.709 131.03C108.956 130.903 109.163 130.713 109.329 130.46L110.059 130.92C109.853 131.287 109.559 131.57 109.179 131.77C108.806 131.963 108.379 132.06 107.899 132.06ZM115.184 127.54H113.244V132H112.284V127.54H110.344V126.7H115.184V127.54ZM118.615 128.5C119.289 128.507 119.802 128.66 120.155 128.96C120.509 129.26 120.685 129.683 120.685 130.23C120.685 130.803 120.492 131.247 120.105 131.56C119.725 131.867 119.179 132.017 118.465 132.01L116.165 132V126.7H117.125V128.49L118.615 128.5ZM118.385 131.28C118.819 131.287 119.145 131.2 119.365 131.02C119.592 130.84 119.705 130.573 119.705 130.22C119.705 129.873 119.595 129.62 119.375 129.46C119.162 129.3 118.832 129.217 118.385 129.21L117.125 129.19V131.27L118.385 131.28ZM69.5188 141.24C69.8721 141.333 70.1454 141.483 70.3388 141.69C70.5321 141.897 70.6288 142.153 70.6288 142.46C70.6288 142.773 70.5221 143.053 70.3088 143.3C70.0954 143.54 69.7988 143.73 69.4188 143.87C69.0454 144.003 68.6254 144.07 68.1588 144.07C67.7654 144.07 67.3788 144.02 66.9988 143.92C66.6254 143.813 66.2921 143.663 65.9988 143.47L66.2888 142.74C66.5421 142.9 66.8321 143.027 67.1588 143.12C67.4854 143.207 67.8154 143.25 68.1488 143.25C68.6021 143.25 68.9621 143.173 69.2288 143.02C69.5021 142.86 69.6388 142.647 69.6388 142.38C69.6388 142.133 69.5288 141.943 69.3088 141.81C69.0954 141.677 68.7921 141.61 68.3988 141.61H67.4288V140.92H68.3288C68.6888 140.92 68.9721 140.857 69.1788 140.73C69.3854 140.603 69.4888 140.43 69.4888 140.21C69.4888 139.97 69.3654 139.783 69.1188 139.65C68.8788 139.517 68.5521 139.45 68.1388 139.45C67.6121 139.45 67.0554 139.587 66.4688 139.86L66.2088 139.12C66.8554 138.793 67.5321 138.63 68.2388 138.63C68.6654 138.63 69.0488 138.69 69.3888 138.81C69.7288 138.93 69.9954 139.1 70.1888 139.32C70.3821 139.54 70.4788 139.79 70.4788 140.07C70.4788 140.33 70.3921 140.563 70.2188 140.77C70.0454 140.977 69.8121 141.133 69.5188 141.24ZM75.6982 141.25C76.3849 141.423 76.7282 141.853 76.7282 142.54C76.7282 143.007 76.5515 143.367 76.1982 143.62C75.8515 143.873 75.3315 144 74.6382 144H72.0882V138.7H74.5482C75.1749 138.7 75.6649 138.82 76.0182 139.06C76.3715 139.293 76.5482 139.627 76.5482 140.06C76.5482 140.34 76.4715 140.583 76.3182 140.79C76.1715 140.99 75.9649 141.143 75.6982 141.25ZM73.0282 140.98H74.4682C74.8349 140.98 75.1115 140.913 75.2982 140.78C75.4915 140.647 75.5882 140.453 75.5882 140.2C75.5882 139.693 75.2149 139.44 74.4682 139.44H73.0282V140.98ZM74.5682 143.26C74.9682 143.26 75.2682 143.197 75.4682 143.07C75.6682 142.943 75.7682 142.747 75.7682 142.48C75.7682 142.207 75.6749 142.003 75.4882 141.87C75.3082 141.737 75.0215 141.67 74.6282 141.67H73.0282V143.26H74.5682ZM80.5008 144.06C79.9741 144.06 79.5008 143.943 79.0808 143.71C78.6608 143.477 78.3308 143.157 78.0908 142.75C77.8574 142.337 77.7408 141.87 77.7408 141.35C77.7408 140.83 77.8574 140.367 78.0908 139.96C78.3308 139.547 78.6608 139.227 79.0808 139C79.5008 138.767 79.9741 138.65 80.5008 138.65C81.0274 138.65 81.4974 138.767 81.9108 139C82.3308 139.227 82.6574 139.547 82.8908 139.96C83.1308 140.367 83.2508 140.83 83.2508 141.35C83.2508 141.87 83.1308 142.337 82.8908 142.75C82.6574 143.157 82.3308 143.477 81.9108 143.71C81.4974 143.943 81.0274 144.06 80.5008 144.06ZM80.5008 143.22C80.8408 143.22 81.1441 143.143 81.4108 142.99C81.6841 142.83 81.8974 142.61 82.0508 142.33C82.2041 142.043 82.2808 141.717 82.2808 141.35C82.2808 140.983 82.2041 140.66 82.0508 140.38C81.8974 140.093 81.6841 139.873 81.4108 139.72C81.1441 139.567 80.8408 139.49 80.5008 139.49C80.1608 139.49 79.8541 139.567 79.5808 139.72C79.3141 139.873 79.1008 140.093 78.9408 140.38C78.7874 140.66 78.7108 140.983 78.7108 141.35C78.7108 141.717 78.7874 142.043 78.9408 142.33C79.1008 142.61 79.3141 142.83 79.5808 142.99C79.8541 143.143 80.1608 143.22 80.5008 143.22ZM84.637 138.7H85.597V140.95H88.617V138.7H89.577V144H88.617V141.78H85.597V144H84.637V138.7ZM93.5037 141.76H92.4037V144H91.4437V138.7H92.4037V140.94H93.5237L95.2437 138.7H96.2737L94.2637 141.25L96.4137 144H95.2837L93.5037 141.76ZM99.2126 138.65C99.9459 138.65 100.506 138.83 100.893 139.19C101.286 139.55 101.483 140.087 101.483 140.8V144H100.573V143.3C100.413 143.547 100.183 143.737 99.8826 143.87C99.5892 143.997 99.2392 144.06 98.8326 144.06C98.2392 144.06 97.7626 143.917 97.4026 143.63C97.0492 143.343 96.8726 142.967 96.8726 142.5C96.8726 142.033 97.0426 141.66 97.3826 141.38C97.7226 141.093 98.2626 140.95 99.0026 140.95H100.523V140.76C100.523 140.347 100.403 140.03 100.163 139.81C99.9226 139.59 99.5692 139.48 99.1026 139.48C98.7892 139.48 98.4826 139.533 98.1826 139.64C97.8826 139.74 97.6292 139.877 97.4226 140.05L97.0226 139.33C97.2959 139.11 97.6226 138.943 98.0026 138.83C98.3826 138.71 98.7859 138.65 99.2126 138.65ZM98.9926 143.32C99.3592 143.32 99.6759 143.24 99.9426 143.08C100.209 142.913 100.403 142.68 100.523 142.38V141.64H99.0426C98.2292 141.64 97.8226 141.913 97.8226 142.46C97.8226 142.727 97.9259 142.937 98.1326 143.09C98.3392 143.243 98.6259 143.32 98.9926 143.32Z" fill="white"/>
</svg>
